<svg width="368" height="357" viewBox="0 0 368 357" fill="none" xmlns="http://www.w3.org/2000/svg">
<rect width="368" height="357" fill="#DCD9FF"/>
<path d="M290 213H299L341 299C283.098 294.784 214 314.5 204 325C194 335.5 195.5 341 183 342C171 340 169.5 334.5 161 325C152.5 315.5 82.7973 296.45 28 299L56.5 240M67 258L56.5 277C103.503 280.028 127.241 289.25 166 316M198 316C232.048 287.832 254.829 278.21 305 277L302 267M265 195H272L302 256.5C302 256.5 230 251.5 185 322" stroke="#180469" stroke-width="6"/>
<path d="M165.302 83L169 115.5C119.802 120.5 103.563 132.617 86.3025 177C91.9403 170.518 109.093 170.514 149.302 173L134.302 197H119.802C119.802 197 90.3025 193.5 90.3025 218.5C90.3025 243.5 143.302 251 159.802 270C176.302 289 177.967 297.938 175.802 322C168.474 289.328 114.802 277 95.8025 268.5C76.8025 260 69.6477 247.129 69.8025 226C71.037 204.518 80.3025 185 124.802 186C124.802 186 127.802 181.5 126.302 181C124.802 180.5 118.802 180 114.302 180.5C109.802 181 38.0506 185.942 69.8025 251C44.0119 213.259 44.3334 159 72 126.5C90.3025 105 111.895 86.1321 165.302 83Z" fill="url(#paint0_linear_1_25)"/>
<path d="M194.21 113C209.179 139.895 207.293 157.589 190.71 192C186.71 196.5 182.404 199.596 171.71 211C161.015 222.404 155.117 252.582 171.71 271.5C146.734 253.375 134.71 231.5 142.21 204.5C149.71 177.5 169.484 166.955 168.71 140.5C173.167 149.609 173.729 155.332 171.71 166.5C181.194 156.373 185.71 148.5 182.21 132.5C178.71 116.5 172.96 106.152 171.71 86C174.725 61.0319 181.54 49.5014 204.21 34C176.556 64.9165 178.298 82.2029 194.21 113Z" fill="url(#paint1_linear_1_25)"/>
<path d="M220.456 197C249.456 174 249.877 145.864 238.456 119C270.456 154 261.456 199.5 227.456 222C244.336 212.677 253.534 206.458 265.956 180.5C259.635 205.362 252.665 217.51 227.456 232.5C198.859 249.468 195.307 260.641 188.456 280.5C180.658 238.8 191.456 220 220.456 197Z" fill="url(#paint2_linear_1_25)"/>
<path d="M205.34 193.5C237.696 168.336 248.515 152.72 239.34 119C250.761 145.864 250.34 174 221.34 197C192.34 220 181.542 238.8 189.34 280.5C175.467 245.924 171.016 231.578 205.34 193.5Z" fill="url(#paint3_linear_1_25)"/>
<path d="M216 212C231 201.5 238.168 196.178 247.5 179C244.271 192.648 239.366 201.103 214 220.5C198.54 233.132 195.744 241.601 192 257C192.745 239.176 201 222.5 216 212Z" fill="#9BA2FF"/>
<path d="M168.845 189.502C182.027 176.794 188.279 170.421 194.823 152C193.758 165.984 190.229 175.1 168.192 198.209C154.887 213.094 153.444 221.895 152.143 237.689C150.104 219.966 155.662 202.209 168.845 189.502Z" fill="#B29BFF" fill-opacity="0.75"/>
<path d="M200.985 87C192.379 66.2369 192.031 54.3082 203.5 34.5C175.846 65.4165 177.574 83.2029 193.485 114C208.454 140.895 207.083 157.589 190.5 192C221.626 162.35 236.373 143.436 200.985 87Z" fill="url(#paint4_linear_1_25)"/>
<defs>
<linearGradient id="paint0_linear_1_25" x1="163.5" y1="83" x2="87.5" y2="273.5" gradientUnits="userSpaceOnUse">
<stop offset="0.326923" stop-color="#FFC559"/>
<stop offset="1" stop-color="#150277"/>
</linearGradient>
<linearGradient id="paint1_linear_1_25" x1="172.189" y1="34" x2="172.189" y2="271.5" gradientUnits="userSpaceOnUse">
<stop stop-color="#FF8FF2"/>
<stop offset="1" stop-color="#1E0467"/>
</linearGradient>
<linearGradient id="paint2_linear_1_25" x1="225.978" y1="119" x2="225.978" y2="280.5" gradientUnits="userSpaceOnUse">
<stop stop-color="#F9B678"/>
<stop offset="1" stop-color="#050F9B"/>
</linearGradient>
<linearGradient id="paint3_linear_1_25" x1="212.656" y1="119" x2="212.656" y2="280.5" gradientUnits="userSpaceOnUse">
<stop stop-color="#FFB39A"/>
<stop offset="1" stop-color="#0330A2"/>
</linearGradient>
<linearGradient id="paint4_linear_1_25" x1="201.685" y1="35" x2="201.685" y2="193" gradientUnits="userSpaceOnUse">
<stop stop-color="#F9CAF5"/>
<stop offset="1" stop-color="#8040A3"/>
</linearGradient>
</defs>
</svg>
